<svg xmlns="http://www.w3.org/2000/svg" viewBox="0 0 120 150" fill="none" x="0px" y="0px"><path fill-rule="evenodd" clip-rule="evenodd" d="M10.8707 37.8748L18.1918 25.8165C20.2249 16.9414 38.1669 10 60 10C81.4711 10 99.1791 16.7131 101.694 25.3767L109.282 37.8748C110.455 39.8059 110.443 42.2319 109.252 44.1517L83.951 84.9354C84.6085 85.7818 85 86.8452 85 88V96C85 98.7614 82.7614 101 80 101H78.3353C78.7687 102.593 79 104.27 79 106C79 108.209 77.2092 110 75 110C72.7909 110 71 108.209 71 106C71 104.2 70.5675 102.5 69.8006 101H64V106C64 108.209 62.2092 110 60 110C57.7909 110 56 108.209 56 106V101H50.1994C49.4326 102.5 49 104.2 49 106C49 108.209 47.2091 110 45 110C42.7909 110 41 108.209 41 106C41 104.27 41.2313 102.593 41.6648 101H40C37.2386 101 35 98.7614 35 96V88C35 86.7957 35.4258 85.6908 36.1351 84.8277L10.9009 44.1517C9.70992 42.2319 9.69826 39.8059 10.8707 37.8748ZM26.9148 26.3873C25.9547 27.3331 25.9459 27.6582 26.9148 28.6127C28.072 29.7526 30.1568 31.1474 33.3784 32.4898C39.7868 35.1599 49.1943 37 60 37C70.8057 37 80.2132 35.1599 86.6216 32.4898C89.8432 31.1474 91.928 29.7526 93.0852 28.6127C94.0611 27.6513 94.0611 27.3487 93.0852 26.3873C91.928 25.2474 89.8432 23.8526 86.6216 22.5102C80.2132 19.8401 70.8057 18 60 18C49.1943 18 39.7868 19.8401 33.3784 22.5102C30.1568 23.8526 28.072 25.2474 26.9148 26.3873ZM44.4156 83H56V76.8368C48.7113 76.1685 41.5848 73.4471 35.5092 68.6434L44.4156 83ZM64 83H75.7372L85.4053 67.4157C79.1363 72.759 71.6576 75.8816 64 76.7496V83ZM101.807 40.9774L100.833 39.374C100.499 41.1393 100.096 42.8433 99.6303 44.4857L101.807 40.9774ZM92.8849 38.3871C89.1393 57.2819 76.539 66.8681 64 68.6806V44.9217C75.6813 44.4618 85.9697 42.0086 92.8849 38.3871ZM27.0564 38.3562C33.9718 42.0841 44.1111 44.4537 56 44.9217V68.7947C49.0144 67.9876 42.2642 64.7954 36.9621 59.1382C32.4727 54.348 28.7834 47.5229 27.0564 38.3562C26.9533 38.302 27.1579 38.411 27.0564 38.3562ZM19.1589 39.6387C19.42 41.049 19.7229 42.419 20.0653 43.7487L18.3461 40.9774L19.1589 39.6387ZM43 93V91H77V93H43Z" fill="black"/><text x="0" y="135" fill="#000000" font-size="5px" font-weight="bold" font-family="'Helvetica Neue', Helvetica, Arial-Unicode, Arial, Sans-serif">Created by Marz Gallery</text><text x="0" y="140" fill="#000000" font-size="5px" font-weight="bold" font-family="'Helvetica Neue', Helvetica, Arial-Unicode, Arial, Sans-serif">from the Noun Project</text></svg>